<svg width="24" height="24" viewBox="0 0 24 24" fill="none" xmlns="http://www.w3.org/2000/svg">
<path d="M7.29703 5.11964L7.14597 5.17658C6.58413 5.38834 5.62368 5.81893 4.79623 6.52368C3.97088 7.22665 3.29566 8.18579 3.2519 9.46266L7.29703 5.11964ZM7.29703 5.11964L7.30729 4.95852M7.29703 5.11964L7.30729 4.95852M7.30729 4.95852C7.37354 3.91763 7.66721 3.22285 8.15648 2.78636C8.79306 2.21898 9.62454 2.22795 10.2503 2.30032C10.4527 2.32401 10.6568 2.37443 10.8561 2.44899C11.1307 2.55193 11.3139 2.81759 11.3139 3.11286V6.2783H10.0965C9.84622 6.00366 9.48671 5.82706 9.08205 5.82706C8.32082 5.82706 7.70395 6.44392 7.70395 7.20516C7.70395 7.96639 8.32082 8.58325 9.08205 8.58325C9.48696 8.58325 9.84657 8.40677 10.0967 8.13202H11.3139V15.3031H10.0965C9.84622 15.0284 9.48671 14.8518 9.08205 14.8518C8.32082 14.8518 7.70395 15.4687 7.70395 16.2299C7.70395 16.9912 8.32082 17.608 9.08205 17.608C9.48697 17.608 9.84657 17.4316 10.0967 17.1568H11.3139V20.0073C11.3139 20.3384 11.0926 20.6253 10.7915 20.6906C10.6122 20.7293 10.4228 20.75 10.225 20.75H10.225H10.2249H10.2249H10.2248H10.2248H10.2247H10.2247H10.2246H10.2245H10.2245H10.2244H10.2244H10.2243H10.2243H10.2242H10.2242H10.2241H10.224H10.224H10.2239H10.2239H10.2238H10.2238H10.2237H10.2236H10.2236H10.2235H10.2235H10.2234H10.2234H10.2233H10.2233H10.2232H10.2231H10.2231H10.223H10.223H10.2229H10.2229H10.2228H10.2227H10.2227H10.2226H10.2226H10.2225H10.2225H10.2224H10.2224H10.2223H10.2222H10.2222H10.2221H10.2221H10.222H10.222H10.2219H10.2218H10.2218H10.2217H10.2217H10.2216H10.2216H10.2215H10.2214H10.2214H10.2213H10.2213H10.2212H10.2212H10.2211H10.2211H10.221H10.2209H10.2209H10.2208H10.2208H10.2207H10.2207H10.2206H10.2205H10.2205H10.2204H10.2204H10.2203H10.2203H10.2202H10.2201H10.2201H10.22H10.22H10.2199H10.2199H10.2198H10.2197H10.2197H10.2196H10.2196H10.2195H10.2195H10.2194H10.2193H10.2193H10.2192H10.2192H10.2191H10.2191H10.219H10.2189H10.2189H10.2188H10.2188H10.2187H10.2187H10.2186H10.2185H10.2185H10.2184H10.2184H10.2183H10.2182H10.2182H10.2181H10.2181H10.218H10.218H10.2179H10.2178H10.2178H10.2177H10.2177H10.2176H10.2176H10.2175H10.2174H10.2174H10.2173H10.2173H10.2172H10.2172H10.2171H10.217H10.217H10.2169H10.2169H10.2168H10.2167H10.2167H10.2166H10.2166H10.2165H10.2165H10.2164H10.2163H10.2163H10.2162H10.2162H10.2161H10.2161H10.216H10.2159H10.2159H10.2158H10.2158H10.2157H10.2156H10.2156H10.2155H10.2155H10.2154H10.2154H10.2153H10.2152H10.2152H10.2151H10.2151H10.215H10.2149H10.2149H10.2148H10.2148H10.2147H10.2147H10.2146H10.2145H10.2145H10.2144H10.2144H10.2143H10.2142H10.2142H10.2141H10.2141H10.214H10.214H10.2139H10.2138H10.2138H10.2137H10.2137H10.2136H10.2135H10.2135H10.2134H10.2134H10.2133H10.2133H10.2132H10.2131H10.2131H10.213H10.213H10.2129H10.2128H10.2128H10.2127H10.2127H10.2126H10.2126H10.2125H10.2124H10.2124H10.2123H10.2123H10.2122H10.2121H10.2121H10.212H10.212H10.2119H10.2118H10.2118H10.2117H10.2117H10.2116H10.2116H10.2115H10.2114H10.2114H10.2113H10.2113H10.2112H10.2111H10.2111H10.211H10.211H10.2109H10.2108H10.2108H10.2107H10.2107H10.2106H10.2106H10.2105H10.2104H10.2104H10.2103H10.2103H10.2102H10.2101H10.2101H10.21H10.21H10.2099H10.2098H10.2098H10.2097H10.2097H10.2096H10.2096H10.2095H10.2094H10.2094H10.2093H10.2093H10.2092H10.2091H10.2091H10.209H10.209H10.2089H10.2088H10.2088H10.2087H10.2087H10.2086H10.2086H10.2085H10.2084H10.2084H10.2083H10.2083H10.2082H10.2081H10.2081H10.208H10.208H10.2079H10.2078H10.2078H10.2077H10.2077H10.2076H10.2076H10.2075H10.2074H10.2074H10.2073H10.2073H10.2072H10.2071H10.2071H10.207H10.207H10.2069H10.2068H10.2068H10.2067H10.2067H10.2066H10.2065H10.2065H10.2064H10.2064H10.2063H10.2063H10.2062H10.2061H10.2061H10.206H10.206H10.2059H10.2058H10.2058H10.2057H10.2057H10.2056H10.2055H10.2055H10.2054H10.2054H10.2053H10.2052H10.2052H10.2051H10.2051H10.205H10.205H10.2049H10.2048H10.2048H10.2047H10.2047H10.2046H10.2045H10.2045H10.2044H10.2044H10.2043H10.2042H10.2042H10.2041H10.2041H10.204H10.2039H10.2039H10.2038H10.2038H10.2037H10.2037H10.2036H10.2035H10.2035H10.2034H10.2034H10.2033H10.2032H10.2032H10.2031H10.2031H10.203H10.2029H10.2029H10.2028H10.2028H10.2027H10.2027H10.2026H10.2025H10.2025H10.2024H10.2024H10.2023H10.2022H10.2022H10.2021H10.2021H10.202H10.2019H10.2019H10.2018H10.2018H10.2017H10.2016H10.2016H10.2015H10.2015H10.2014H10.2014H10.2013H10.2012H10.2012H10.2011H10.2011H10.201H10.2009H10.2009H10.2008H10.2008H10.2007H10.2006H10.2006H10.2005H10.2005H10.2004H10.2004H10.2003H10.2002H10.2002H10.2001H10.2001H10.2H10.1999H10.1999H10.1998H10.1998H10.1997H10.1996H10.1996H10.1995H10.1995H10.1994H10.1994H10.1993H10.1992H10.1992H10.1991H10.1991H10.199H10.1989H10.1989H10.1988H10.1988H10.1987H10.1986H10.1986H10.1985H10.1985H10.1984H10.1984H10.1983H10.1982H10.1982H10.1981H10.1981H10.198H10.1979H10.1979H10.1978H10.1978H10.1977H10.1977H10.1976H10.1975H10.1975H10.1974H10.1974H10.1973H10.1972H10.1972H10.1971H10.1971H10.197H10.197H10.1969H10.1968H10.1968H10.1967H10.1967H10.1966H10.1965H10.1965H10.1965C9.79347 20.7464 9.13873 20.7376 8.55087 20.4679C7.98431 20.2081 7.46099 19.6974 7.32613 18.6277L7.30396 18.4518M7.30729 4.95852L7.30396 18.4518M7.30396 18.4518L7.13064 18.4146M7.30396 18.4518L7.13064 18.4146M7.13064 18.4146C6.45029 18.2683 5.64377 17.9187 5.01004 17.2666C4.38152 16.6199 3.9086 15.6615 3.9086 14.2639C3.9086 14.1735 3.91291 14.0853 3.92026 13.9981H5.92338C6.43496 13.9981 6.85023 13.5835 6.85023 13.0713V12.1932H7.61634C7.86664 12.4678 8.22615 12.6444 8.63081 12.6444C9.39205 12.6444 10.0089 12.0275 10.0089 11.2663C10.0089 10.5051 9.39205 9.88821 8.63081 9.88821C8.2259 9.88821 7.86629 10.0647 7.61621 10.3395H5.92338C5.41179 10.3395 4.99652 10.7541 4.99652 11.2663V12.1444H3.83964M7.13064 18.4146L3.83964 12.1444M3.83964 12.1444C3.35285 11.1097 3.23272 10.0253 3.2519 9.46269L3.83964 12.1444ZM16.7229 4.94318L16.7287 5.03449V8.08325H15.9626C15.7123 7.80861 15.3528 7.63202 14.9482 7.63202C14.1869 7.63202 13.5701 8.24888 13.5701 9.01011C13.5701 9.77135 14.1869 10.3882 14.9482 10.3882C15.3531 10.3882 15.7127 10.2117 15.9628 9.93697H17.6556C18.1672 9.93697 18.5825 9.52237 18.5825 9.01011V6.02202C19.6688 6.73804 20.7237 7.84275 20.7788 9.44691C20.801 10.1121 20.6323 11.496 19.9001 12.6676L19.8368 12.7689L19.8759 12.8819C20.0043 13.2529 20.1221 13.7214 20.1221 14.2477C20.1221 15.6452 19.6491 16.6036 19.0206 17.2504C18.3869 17.9025 17.5804 18.252 16.9 18.3983L16.7267 18.4356L16.7045 18.6114C16.5697 19.6809 16.0465 20.1916 15.4799 20.4515C14.8921 20.7212 14.2374 20.7301 13.8342 20.7338H13.8342H13.8341H13.8341H13.834H13.834H13.8339H13.8338H13.8338H13.8337H13.8337H13.8336H13.8335H13.8335H13.8334H13.8334H13.8333H13.8333H13.8332H13.8331H13.8331H13.833H13.833H13.8329H13.8328H13.8328H13.8327H13.8327H13.8326H13.8325H13.8325H13.8324H13.8324H13.8323H13.8323H13.8322H13.8321H13.8321H13.832H13.832H13.8319H13.8318H13.8318H13.8317H13.8317H13.8316H13.8316H13.8315H13.8314H13.8314H13.8313H13.8313H13.8312H13.8311H13.8311H13.831H13.831H13.8309H13.8308H13.8308H13.8307H13.8307H13.8306H13.8306H13.8305H13.8304H13.8304H13.8303H13.8303H13.8302H13.8301H13.8301H13.83H13.83H13.8299H13.8298H13.8298H13.8297H13.8297H13.8296H13.8296H13.8295H13.8294H13.8294H13.8293H13.8293H13.8292H13.8291H13.8291H13.829H13.829H13.8289H13.8288H13.8288H13.8287H13.8287H13.8286H13.8285H13.8285H13.8284H13.8284H13.8283H13.8283H13.8282H13.8281H13.8281H13.828H13.828H13.8279H13.8278H13.8278H13.8277H13.8277H13.8276H13.8275H13.8275H13.8274H13.8274H13.8273H13.8273H13.8272H13.8271H13.8271H13.827H13.827H13.8269H13.8268H13.8268H13.8267H13.8267H13.8266H13.8265H13.8265H13.8264H13.8264H13.8263H13.8262H13.8262H13.8261H13.8261H13.826H13.826H13.8259H13.8258H13.8258H13.8257H13.8257H13.8256H13.8255H13.8255H13.8254H13.8254H13.8253H13.8252H13.8252H13.8251H13.8251H13.825H13.8249H13.8249H13.8248H13.8248H13.8247H13.8247H13.8246H13.8245H13.8245H13.8244H13.8244H13.8243H13.8242H13.8242H13.8241H13.8241H13.824H13.8239H13.8239H13.8238H13.8238H13.8237H13.8237H13.8236H13.8235H13.8235H13.8234H13.8234H13.8233H13.8232H13.8232H13.8231H13.8231H13.823H13.8229H13.8229H13.8228H13.8228H13.8227H13.8226H13.8226H13.8225H13.8225H13.8224H13.8224H13.8223H13.8222H13.8222H13.8221H13.8221H13.822H13.8219H13.8219H13.8218H13.8218H13.8217H13.8216H13.8216H13.8215H13.8215H13.8214H13.8214H13.8213H13.8212H13.8212H13.8211H13.8211H13.821H13.8209H13.8209H13.8208H13.8208H13.8207H13.8206H13.8206H13.8205H13.8205H13.8204H13.8203H13.8203H13.8202H13.8202H13.8201H13.8201H13.82H13.8199H13.8199H13.8198H13.8198H13.8197H13.8196H13.8196H13.8195H13.8195H13.8194H13.8194H13.8193H13.8192H13.8192H13.8191H13.8191H13.819H13.8189H13.8189H13.8188H13.8188H13.8187H13.8186H13.8186H13.8185H13.8185H13.8184H13.8184H13.8183H13.8182H13.8182H13.8181H13.8181H13.818H13.8179H13.8179H13.8178H13.8178H13.8177H13.8176H13.8176H13.8175H13.8175H13.8174H13.8174H13.8173H13.8172H13.8172H13.8171H13.8171H13.817H13.8169H13.8169H13.8168H13.8168H13.8167H13.8167H13.8166H13.8165H13.8165H13.8164H13.8164H13.8163H13.8162H13.8162H13.8161H13.8161H13.816H13.816H13.8159H13.8158H13.8158H13.8157H13.8157H13.8156H13.8155H13.8155H13.8154H13.8154H13.8153H13.8153H13.8152H13.8151H13.8151H13.815H13.815H13.8149H13.8149H13.8148H13.8147H13.8147H13.8146H13.8146H13.8145H13.8144H13.8144H13.8143H13.8143H13.8142H13.8142H13.8141H13.814H13.814H13.8139H13.8139H13.8138H13.8137H13.8137H13.8136H13.8136H13.8135H13.8135H13.8134H13.8133H13.8133H13.8132H13.8132H13.8131H13.8131H13.813H13.8129H13.8129H13.8128H13.8128H13.8127H13.8127H13.8126H13.8125H13.8125H13.8124H13.8124H13.8123H13.8122H13.8122H13.8121H13.8121H13.812H13.812H13.8119H13.8118H13.8118H13.8117H13.8117H13.8116H13.8116H13.8115H13.8114H13.8114H13.8113H13.8113H13.8112H13.8112H13.8111H13.811H13.811H13.8109H13.8109H13.8108H13.8108H13.8107H13.8106H13.8106H13.8105H13.8105H13.8104H13.8104H13.8103H13.8102H13.8102H13.8101H13.8101H13.81H13.81H13.8099H13.8098H13.8098H13.8097H13.8097H13.8096H13.8096H13.8095H13.8094H13.8094H13.8093H13.8093H13.8092H13.8092H13.8091H13.8091H13.809H13.8089H13.8089H13.8088H13.8088H13.8087H13.8087H13.8086H13.8085H13.8085H13.8084H13.8084H13.8083H13.8083H13.8082H13.8081H13.8081H13.808H13.808H13.8079H13.8079H13.8078H13.8078H13.8077H13.8076H13.8076H13.8075H13.8075H13.8074H13.8074H13.8073H13.8072H13.8072H13.8071H13.8071H13.807H13.807H13.8069H13.8069H13.8068H13.8067H13.8067H13.8066H13.8066H13.8065H13.8065H13.8064H13.8064H13.8063H13.8062H13.8062H13.8061H13.8061H13.806H13.806H13.8059H13.8059H13.8058H13.8057H13.8057H13.8056C13.6075 20.7338 13.4181 20.713 13.239 20.6744C12.9377 20.6092 12.7163 20.3222 12.7163 19.991V15.8031H16.3019C16.8135 15.8031 17.2287 15.3885 17.2287 14.8762V13.6345C17.5034 13.3842 17.68 13.0247 17.68 12.62C17.68 11.8588 17.0631 11.2419 16.3019 11.2419C15.5407 11.2419 14.9238 11.8588 14.9238 12.62C14.9238 13.0249 15.1003 13.3846 15.375 13.6346V13.9494H12.7163V3.09662C12.7163 2.80124 12.8995 2.53591 13.1736 2.43383L13.174 2.4337C13.3735 2.35902 13.5785 2.30823 13.7801 2.28502L13.7804 2.28498C14.4059 2.21218 15.2363 2.2031 15.8739 2.77113C16.363 3.20712 16.6567 3.90224 16.7229 4.94318Z" fill="white" stroke="white" stroke-width="0.5"/>
</svg>
