<svg width="24" height="25" viewBox="0 0 24 25" fill="none" xmlns="http://www.w3.org/2000/svg">
<path d="M19.8772 14.8336C19.3113 13.826 19.0154 12.6892 19.0182 11.5336V9.42182C19.0636 7.63703 18.4 5.90695 17.1727 4.61037C15.9453 3.31378 14.2542 2.55635 12.4696 2.50391C10.686 2.55784 8.99639 3.31592 7.77027 4.61234C6.54414 5.90876 5.88133 7.63799 5.92681 9.42182V11.5336C5.92704 12.6889 5.6313 13.825 5.0678 14.8336L4.88312 15.1514C4.63638 15.5825 4.50337 16.0693 4.49661 16.5659C4.48985 17.0626 4.60955 17.5528 4.84446 17.9905C5.0624 18.4184 5.3937 18.7782 5.8022 19.0307C6.21071 19.2832 6.68071 19.4186 7.16093 19.4221H8.89327C9.0364 20.2686 9.46978 21.0388 10.119 21.6005C10.7682 22.1622 11.5928 22.4804 12.451 22.5003C13.3092 22.4818 14.1342 22.1646 14.7836 21.6032C15.4331 21.0419 15.8663 20.2715 16.0088 19.425H17.744C18.2246 19.4235 18.6955 19.289 19.1044 19.0363C19.5132 18.7836 19.8442 18.4226 20.0604 17.9933C20.2953 17.5557 20.415 17.0655 20.4083 16.5688C20.4015 16.0721 20.2685 15.5854 20.0218 15.1543L19.8371 14.8365L19.8772 14.8336ZM12.4696 20.9526C12.0103 20.9438 11.5654 20.7905 11.1982 20.5145C10.8309 20.2384 10.5599 19.8537 10.4237 19.415H14.5155C14.3782 19.8531 14.1069 20.237 13.7399 20.5129C13.3729 20.7887 12.9286 20.9425 12.4696 20.9526ZM18.8292 17.2302C18.7309 17.4257 18.5798 17.5898 18.3931 17.7039C18.2063 17.818 17.9914 17.8776 17.7726 17.8759H7.16666C6.94857 17.8741 6.73509 17.813 6.549 17.6993C6.36291 17.5856 6.2112 17.4235 6.11007 17.2302C6.00168 17.0321 5.94654 16.8092 5.95006 16.5833C5.95357 16.3575 6.01561 16.1364 6.13011 15.9417L6.3148 15.6239C7.01736 14.3758 7.38482 12.9672 7.38141 11.535V9.42182C7.34366 8.03388 7.85831 6.6877 8.81233 5.67892C9.76635 4.67014 11.0817 4.08124 12.4696 4.04154C13.8583 4.08012 15.1747 4.66854 16.1297 5.67744C17.0846 6.68634 17.5999 8.03316 17.5621 9.42182V11.5336C17.5613 12.9654 17.9286 14.3734 18.6287 15.6224L18.8134 15.9403C18.9234 16.1365 18.9828 16.3571 18.9863 16.582C18.9898 16.8069 18.9373 17.0292 18.8335 17.2288L18.8292 17.2302Z" fill="white"/>
<path d="M4.5195 6.64647C4.89111 5.59629 5.46452 4.62892 6.20746 3.79885C6.33943 3.6443 6.40564 3.44422 6.3919 3.24145C6.37816 3.03869 6.28557 2.84937 6.13396 2.71404C5.98234 2.5787 5.78376 2.50813 5.58074 2.51741C5.37772 2.5267 5.18642 2.61512 5.04779 2.76374C4.16826 3.74496 3.48755 4.88758 3.04343 6.1282C2.97557 6.32321 2.98761 6.53714 3.07693 6.7233C3.16626 6.90946 3.3256 7.05271 3.52018 7.12179C3.60463 7.14957 3.69334 7.16217 3.78218 7.15901C3.9432 7.15933 4.10035 7.10963 4.23191 7.01679C4.36347 6.92396 4.46296 6.79256 4.51664 6.64074L4.5195 6.64647Z" fill="white"/>
<path d="M21.9046 6.12866C21.4688 4.8833 20.7871 3.7382 19.9002 2.76133C19.8325 2.68466 19.7503 2.62218 19.6582 2.57753C19.5662 2.53288 19.4662 2.50694 19.364 2.50121C19.2619 2.49549 19.1596 2.51009 19.0632 2.54417C18.9667 2.57826 18.878 2.63114 18.8021 2.69977C18.6496 2.83799 18.5577 3.0307 18.5462 3.2362C18.5346 3.4417 18.6045 3.64347 18.7406 3.79788C19.484 4.62836 20.0579 5.5962 20.43 6.64693C20.4837 6.79897 20.5834 6.93054 20.7153 7.0234C20.8471 7.11626 21.0046 7.16581 21.1659 7.1652C21.254 7.16664 21.3417 7.15258 21.425 7.12368C21.6199 7.05462 21.7795 6.91113 21.8689 6.72464C21.9582 6.53815 21.97 6.32385 21.9017 6.12866H21.9046Z" fill="white"/>
</svg>
