<svg width="24" height="25" viewBox="0 0 24 25" fill="none" xmlns="http://www.w3.org/2000/svg">
<path d="M5.72404 12.0296C4.87242 12.2441 4.1284 12.7621 3.63174 13.4864C3.13508 14.2106 2.91995 15.0913 3.02677 15.963C3.13358 16.8347 3.55499 17.6374 4.21184 18.2203C4.86868 18.8032 5.71576 19.1263 6.59396 19.1288H16.4997C17.1356 19.1284 17.7642 18.9934 18.3441 18.7326C18.924 18.4718 19.4421 18.0912 19.8643 17.6157C20.2865 17.1402 20.6032 16.5807 20.7935 15.974C20.9839 15.3673 21.0436 14.7272 20.9686 14.0957C20.8937 13.4643 20.6859 12.8559 20.3589 12.3106C20.0319 11.7652 19.5931 11.2953 19.0714 10.9318C18.5497 10.5683 17.9569 10.3195 17.3321 10.2016C16.7072 10.0837 16.0645 10.0995 15.4462 10.248L14.2489 10.5743" stroke="white" stroke-width="2" stroke-linecap="round" stroke-linejoin="round"/>
<path d="M15.446 10.2481C15.14 9.02748 14.3808 7.96915 13.3227 7.28807C12.2646 6.607 10.9869 6.35427 9.74913 6.58123C8.5114 6.80818 7.40648 7.4978 6.65883 8.50998C5.91118 9.52217 5.57688 10.781 5.72385 12.0308C5.79879 12.4646 5.94017 12.8842 6.143 13.275" stroke="white" stroke-width="2" stroke-linecap="round" stroke-linejoin="round"/>
</svg>
