<svg width="24" height="24" viewBox="0 0 24 24" fill="none" xmlns="http://www.w3.org/2000/svg">
<path d="M6.30303 2H17.697C18.8378 2.00128 19.9316 2.45505 20.7383 3.26175C21.545 4.06844 21.9987 5.16219 22 6.30303V17.697C21.9987 18.8378 21.545 19.9316 20.7383 20.7383C19.9316 21.545 18.8378 21.9987 17.697 22H6.30303C5.16219 21.9987 4.06844 21.545 3.26175 20.7383C2.45505 19.9316 2.00128 18.8378 2 17.697V6.30303C2.00128 5.16219 2.45505 4.06844 3.26175 3.26175C4.06844 2.45505 5.16219 2.00128 6.30303 2ZM17.697 20.9891C18.5701 20.9881 19.4072 20.6408 20.0246 20.0234C20.6421 19.406 20.9893 18.5689 20.9903 17.6958V6.30303C20.989 5.43009 20.6416 4.59329 20.0242 3.97614C19.4068 3.35899 18.5699 3.01187 17.697 3.01091H6.30303C5.4303 3.01219 4.59368 3.35945 3.97657 3.97657C3.35945 4.59368 3.01219 5.4303 3.01091 6.30303V17.697C3.01219 18.5697 3.35945 19.4063 3.97657 20.0234C4.59368 20.6405 5.4303 20.9878 6.30303 20.9891H17.697Z" fill="white" stroke="white"/>
<path d="M8.15739 5.49097C8.68481 5.49097 9.20038 5.64736 9.63891 5.94038C10.0774 6.2334 10.4192 6.64987 10.6211 7.13714C10.8229 7.62441 10.8757 8.16059 10.7728 8.67787C10.6699 9.19516 10.4159 9.67031 10.043 10.0433C9.67007 10.4162 9.19491 10.6702 8.67763 10.7731C8.16035 10.876 7.62417 10.8231 7.1369 10.6213C6.64963 10.4195 6.23315 10.0777 5.94014 9.63915C5.64712 9.20062 5.49072 8.68505 5.49072 8.15763C5.49072 7.45039 5.77167 6.77211 6.27177 6.27202C6.77187 5.77192 7.45015 5.49097 8.15739 5.49097ZM8.15739 9.88248C8.49925 9.88176 8.83322 9.77969 9.11707 9.58916C9.40091 9.39863 9.62189 9.12822 9.75205 8.8121C9.88221 8.49599 9.91571 8.14838 9.84831 7.81322C9.78091 7.47807 9.61564 7.17043 9.3734 6.92921C9.13116 6.68799 8.82283 6.52401 8.48739 6.45802C8.15196 6.39203 7.80449 6.42699 7.48893 6.55848C7.17337 6.68997 6.90388 6.91208 6.71455 7.19673C6.52522 7.48138 6.42455 7.81577 6.42527 8.15763C6.42687 8.61586 6.61011 9.05475 6.93481 9.37808C7.2595 9.70142 7.69916 9.88281 8.15739 9.88248Z" fill="white" stroke="white"/>
<path d="M15.7211 11.3308C16.0585 11.3312 16.392 11.4015 16.7008 11.5373C17.0096 11.6731 17.2868 11.8715 17.5151 12.1199L21.412 16.3708C21.595 16.5282 21.7418 16.7234 21.8422 16.9429C21.9426 17.1623 21.9944 17.401 21.9939 17.6423V17.7696C21.9926 18.8905 21.5467 19.9651 20.7541 20.7577C19.9615 21.5503 18.8869 21.9962 17.766 21.9975H6.10901C6.00991 21.9974 5.91295 21.9686 5.82992 21.9145C5.74689 21.8604 5.68136 21.7834 5.64131 21.6927C5.60125 21.6021 5.58838 21.5018 5.60428 21.4039C5.62017 21.3061 5.66413 21.215 5.73083 21.1417L13.926 12.1272C14.1537 11.8773 14.4308 11.6774 14.7399 11.5403C15.0489 11.4032 15.383 11.3319 15.7211 11.3308ZM17.7708 20.9744C18.6208 20.9735 19.4357 20.6354 20.0368 20.0344C20.6378 19.4333 20.9759 18.6184 20.9769 17.7684V17.6411C20.9769 17.412 20.9417 17.3647 20.6629 17.0605L20.6399 17.0351L16.7611 12.8108C16.6288 12.6669 16.468 12.552 16.289 12.4733C16.11 12.3947 15.9166 12.354 15.7211 12.3538C15.525 12.3544 15.3312 12.3958 15.152 12.4753C14.9727 12.5548 14.812 12.6707 14.6799 12.8157L7.26537 20.9744H17.7708Z" fill="white"/>
<path d="M15.7211 12.3538C15.9166 12.354 16.11 12.3947 16.289 12.4733C16.468 12.552 16.6288 12.6669 16.7611 12.8108L20.6399 17.0351L20.6629 17.0605C20.9417 17.3647 20.9769 17.412 20.9769 17.6411V17.7684C20.9759 18.6184 20.6378 19.4333 20.0368 20.0344C19.4357 20.6354 18.6208 20.9735 17.7708 20.9744H7.26537L14.6799 12.8157C14.812 12.6707 14.9727 12.5548 15.152 12.4753C15.3312 12.3958 15.525 12.3544 15.7211 12.3538ZM15.7211 12.3538V11.8423M15.7211 11.3308C16.0585 11.3312 16.392 11.4015 16.7008 11.5373C17.0096 11.6731 17.2868 11.8715 17.5151 12.1199L21.412 16.3708C21.595 16.5282 21.7418 16.7234 21.8422 16.9429C21.9426 17.1623 21.9944 17.401 21.9939 17.6423V17.7696C21.9926 18.8905 21.5467 19.9651 20.7541 20.7577C19.9615 21.5503 18.8869 21.9962 17.766 21.9975H6.10901C6.00991 21.9974 5.91295 21.9686 5.82992 21.9145C5.74689 21.8604 5.68136 21.7834 5.64131 21.6927C5.60125 21.6021 5.58838 21.5018 5.60428 21.4039C5.62017 21.3061 5.66413 21.215 5.73083 21.1417L13.926 12.1272C14.1537 11.8773 14.4308 11.6774 14.7399 11.5403C15.0489 11.4032 15.383 11.3319 15.7211 11.3308Z" stroke="white"/>
</svg>
