<svg width="21" height="19" viewBox="0 0 21 19" fill="none" xmlns="http://www.w3.org/2000/svg">
<path d="M17.7852 7.74497C18.0724 7.29555 18.2335 6.77719 18.2516 6.24416C18.2698 5.71112 18.1443 5.18301 17.8883 4.71511C17.6323 4.24721 17.2552 3.85672 16.7966 3.58454C16.3379 3.31235 15.8145 3.16848 15.2812 3.16797C14.6644 3.16811 14.0629 3.35973 13.5598 3.71637C13.0566 4.07302 12.6766 4.57708 12.4722 5.15897L14.0252 8.87397L17.7772 7.74497H17.7852Z" fill="#FFE07D"/>
<path d="M14.0331 9.24578C13.9597 9.24555 13.8881 9.22358 13.8272 9.18264C13.7663 9.1417 13.719 9.08364 13.6911 9.01578L12.1381 5.29878C12.1024 5.2138 12.0999 5.11852 12.1311 5.03178C12.2868 4.58636 12.5351 4.17893 12.8595 3.8363C13.184 3.49366 13.5772 3.22356 14.0135 3.04377C14.4498 2.86397 14.9192 2.77854 15.3908 2.79309C15.8625 2.80765 16.3257 2.92186 16.75 3.12821C17.1744 3.33456 17.5503 3.62839 17.853 3.99038C18.1557 4.35237 18.3783 4.77432 18.5063 5.22851C18.6343 5.68269 18.6647 6.15881 18.5956 6.62559C18.5264 7.09237 18.3593 7.53922 18.1051 7.93678C18.0567 8.01205 17.9829 8.06741 17.8971 8.09278L14.1451 9.22178C14.1121 9.22879 14.0787 9.2338 14.0451 9.23678L14.0331 9.24578ZM12.8781 5.15178L14.2451 8.42078L17.5451 7.42078C17.7206 7.11171 17.831 6.76992 17.8692 6.41654C17.9075 6.06315 17.8729 5.70567 17.7676 5.36618C17.6622 5.02669 17.4884 4.71241 17.2568 4.44274C17.0253 4.17308 16.7408 3.95376 16.4212 3.79834C16.1015 3.64292 15.7533 3.5547 15.3982 3.53913C15.0431 3.52356 14.6886 3.58097 14.3565 3.70781C14.0245 3.83465 13.722 4.02823 13.4677 4.27659C13.2134 4.52495 13.0127 4.82282 12.8781 5.15178Z" fill="#FFE07D"/>
<path d="M20.4819 6.51059H19.7389C19.6885 6.51321 19.6381 6.50554 19.5908 6.48805C19.5434 6.47056 19.5001 6.44362 19.4635 6.40886C19.4269 6.37411 19.3978 6.33227 19.3778 6.28589C19.3579 6.23951 19.3477 6.18957 19.3477 6.13909C19.3477 6.08861 19.3579 6.03867 19.3778 5.99229C19.3978 5.94591 19.4269 5.90407 19.4635 5.86932C19.5001 5.83456 19.5434 5.80762 19.5908 5.79013C19.6381 5.77264 19.6885 5.76497 19.7389 5.76759H20.4819C20.5323 5.76497 20.5828 5.77264 20.6301 5.79013C20.6775 5.80762 20.7208 5.83456 20.7574 5.86932C20.794 5.90407 20.8231 5.94591 20.843 5.99229C20.8629 6.03867 20.8732 6.08861 20.8732 6.13909C20.8732 6.18957 20.8629 6.23951 20.843 6.28589C20.8231 6.33227 20.794 6.37411 20.7574 6.40886C20.7208 6.44362 20.6775 6.47056 20.6301 6.48805C20.5828 6.50554 20.5323 6.51321 20.4819 6.51059Z" fill="#FFE07D"/>
<path d="M15.2812 2.05266C15.2322 2.05319 15.1836 2.04394 15.1382 2.02543C15.0928 2.00693 15.0516 1.97954 15.017 1.94489C14.9823 1.91024 14.9549 1.86902 14.9364 1.82365C14.9179 1.77827 14.9087 1.72966 14.9092 1.68066V0.938657C14.9141 0.843462 14.9554 0.753796 15.0246 0.688163C15.0937 0.62253 15.1854 0.585938 15.2807 0.585938C15.376 0.585938 15.4677 0.62253 15.5368 0.688163C15.606 0.753796 15.6473 0.843462 15.6522 0.938657V1.68166C15.6526 1.73049 15.6433 1.77891 15.6248 1.8241C15.6063 1.8693 15.579 1.91035 15.5444 1.94488C15.5099 1.97941 15.4688 2.00673 15.4236 2.02523C15.3785 2.04373 15.33 2.05306 15.2812 2.05266Z" fill="#FFE07D"/>
<path d="M18.4312 3.36069C18.3825 3.36135 18.3342 3.35181 18.2895 3.3327C18.2447 3.31358 18.2044 3.28531 18.1712 3.24969C18.1359 3.21539 18.1078 3.17435 18.0886 3.12901C18.0694 3.08366 18.0596 3.03493 18.0596 2.98569C18.0596 2.93646 18.0694 2.88773 18.0886 2.84238C18.1078 2.79703 18.1359 2.75599 18.1712 2.72169L18.6992 2.19369C18.7702 2.12549 18.8648 2.0874 18.9632 2.0874C19.0616 2.0874 19.1562 2.12549 19.2272 2.19369C19.2625 2.22799 19.2906 2.26903 19.3098 2.31438C19.3289 2.35973 19.3388 2.40846 19.3388 2.45769C19.3388 2.50693 19.3289 2.55566 19.3098 2.60101C19.2906 2.64635 19.2625 2.68739 19.2272 2.72169L18.6992 3.24969C18.6304 3.31938 18.5371 3.35924 18.4392 3.36069H18.4312Z" fill="#FFE07D"/>
<path d="M12.1301 3.36056C12.0814 3.36121 12.0331 3.35168 11.9883 3.33256C11.9436 3.31345 11.9033 3.28517 11.8701 3.24956L11.3421 2.72156C11.3068 2.68726 11.2787 2.64622 11.2595 2.60087C11.2403 2.55553 11.2305 2.50679 11.2305 2.45756C11.2305 2.40832 11.2403 2.35959 11.2595 2.31424C11.2787 2.2689 11.3068 2.22786 11.3421 2.19356C11.4122 2.1237 11.5071 2.08447 11.6061 2.08447C11.7051 2.08447 11.8 2.1237 11.8701 2.19356L12.3981 2.72156C12.4334 2.75586 12.4615 2.7969 12.4807 2.84224C12.4998 2.88759 12.5097 2.93632 12.5097 2.98556C12.5097 3.03479 12.4998 3.08353 12.4807 3.12887C12.4615 3.17422 12.4334 3.21526 12.3981 3.24956C12.3293 3.31924 12.236 3.35911 12.1381 3.36056H12.1301Z" fill="#FFE07D"/>
<path d="M16.3951 15.7918C17.4678 15.775 18.4909 15.3371 19.2436 14.5726C19.9963 13.808 20.4182 12.7782 20.4182 11.7053C20.4182 10.6325 19.9963 9.60261 19.2436 8.83806C18.4909 8.07352 17.4678 7.6356 16.3951 7.61882C15.8839 7.61622 15.3771 7.71196 14.9021 7.90082L14.8721 7.82682C14.4065 6.71878 13.5715 5.80622 12.5091 5.24435C11.4466 4.68248 10.2223 4.50598 9.04444 4.74489C7.86655 4.98379 6.80779 5.62333 6.04821 6.55475C5.28863 7.48617 4.87515 8.65195 4.87809 9.85382V9.95382C4.6355 9.88994 4.38593 9.85635 4.13509 9.85382C3.7448 9.85382 3.35833 9.93069 2.99775 10.08C2.63717 10.2294 2.30954 10.4483 2.03356 10.7243C1.75759 11.0003 1.53867 11.3279 1.38932 11.6885C1.23996 12.0491 1.16309 12.4355 1.16309 12.8258C1.16309 13.2161 1.23996 13.6026 1.38932 13.9632C1.53867 14.3237 1.75759 14.6514 2.03356 14.9273C2.30954 15.2033 2.63717 15.4222 2.99775 15.5716C3.35833 15.7209 3.7448 15.7978 4.13509 15.7978H16.3881L16.3951 15.7918Z" fill="#CBE2FF"/>
<path d="M16.395 16.1706H4.14304C3.6991 16.1783 3.25807 16.0975 2.84569 15.9329C2.43332 15.7683 2.05784 15.5233 1.74118 15.212C1.42452 14.9008 1.173 14.5296 1.00132 14.1201C0.829633 13.7107 0.741211 13.2711 0.741211 12.8271C0.741211 12.3831 0.829633 11.9435 1.00132 11.5341C1.173 11.1246 1.42452 10.7534 1.74118 10.4422C2.05784 10.1309 2.43332 9.88588 2.84569 9.7213C3.25807 9.55673 3.6991 9.47592 4.14304 9.4836C4.26977 9.47981 4.39659 9.48717 4.52204 9.5056C4.60054 8.27607 5.0844 7.10724 5.89792 6.18199C6.71144 5.25674 7.80872 4.62726 9.01809 4.39203C10.2275 4.15681 11.4807 4.32912 12.5817 4.88199C13.6827 5.43487 14.5694 6.33712 15.103 7.4476C15.7164 7.26261 16.3625 7.21192 16.9972 7.29897C17.632 7.38602 18.2405 7.60877 18.7814 7.95208C19.3224 8.29538 19.783 8.75117 20.1321 9.28844C20.4811 9.82572 20.7103 10.4319 20.804 11.0656C20.8978 11.6994 20.854 12.346 20.6755 12.9613C20.497 13.5766 20.1881 14.1463 19.7697 14.6315C19.3514 15.1168 18.8334 15.5062 18.2511 15.7733C17.6688 16.0405 17.0357 16.179 16.395 16.1796V16.1706ZM4.14304 10.2266C3.45347 10.2266 2.79215 10.5005 2.30456 10.9881C1.81696 11.4757 1.54304 12.137 1.54304 12.8266C1.54304 13.5162 1.81696 14.1775 2.30456 14.6651C2.79215 15.1527 3.45347 15.4266 4.14304 15.4266H16.395C17.3803 15.4266 18.3252 15.0352 19.0219 14.3385C19.7186 13.6418 20.11 12.6969 20.11 11.7116C20.11 10.7263 19.7186 9.78139 19.0219 9.08469C18.3252 8.388 17.3803 7.9966 16.395 7.9966C15.9301 7.99786 15.4693 8.08359 15.035 8.2496C14.942 8.28687 14.8381 8.28687 14.745 8.2496C14.6996 8.23122 14.6587 8.20306 14.6253 8.16711C14.592 8.13116 14.567 8.08831 14.552 8.0416L14.522 7.9676C14.0837 6.94518 13.3059 6.10534 12.3202 5.58984C11.3344 5.07435 10.2009 4.91478 9.11113 5.13807C8.02134 5.36137 7.04197 5.95385 6.33836 6.81549C5.63475 7.67713 5.24999 8.75517 5.24904 9.8676V9.9676C5.24887 10.0249 5.23617 10.0814 5.21181 10.1332C5.18745 10.1851 5.15203 10.2309 5.10804 10.2676C5.06412 10.3035 5.01222 10.3283 4.95671 10.34C4.90119 10.3517 4.84369 10.3498 4.78904 10.3346C4.57517 10.2808 4.35556 10.2533 4.13504 10.2526L4.14304 10.2266Z" fill="#CBE2FF"/>
<path d="M17.7485 18.0275C18.4717 18.0275 19.1653 17.7402 19.6768 17.2288C20.1882 16.7173 20.4755 16.0237 20.4755 15.3005C20.4755 14.5772 20.1882 13.8836 19.6768 13.3722C19.1653 12.8608 18.4717 12.5735 17.7485 12.5735C17.4065 12.5729 17.0674 12.636 16.7485 12.7595L16.7335 12.7075C16.4213 11.9707 15.864 11.3644 15.156 10.9914C14.448 10.6184 13.6329 10.5015 12.8486 10.6606C12.0644 10.8197 11.3592 11.2449 10.8525 11.8643C10.3459 12.4838 10.0689 13.2592 10.0685 14.0595V14.1185C9.90465 14.0795 9.73686 14.0597 9.56847 14.0595C9.04228 14.0595 8.53765 14.2685 8.16557 14.6406C7.7935 15.0126 7.58447 15.5173 7.58447 16.0435C7.58447 16.5697 7.7935 17.0743 8.16557 17.4464C8.53765 17.8184 9.04228 18.0275 9.56847 18.0275H17.7485Z" fill="#EBF4FF"/>
<path d="M17.7482 18.3985H9.57424C8.94974 18.3982 8.35089 18.15 7.9093 17.7085C7.4677 17.2669 7.2195 16.668 7.21924 16.0435C7.22355 15.7234 7.29231 15.4075 7.4214 15.1146C7.5505 14.8217 7.73729 14.5578 7.97062 14.3386C8.20395 14.1195 8.47904 13.9496 8.77947 13.8391C9.07991 13.7286 9.39952 13.6798 9.71924 13.6955C9.79922 12.8697 10.1446 12.092 10.7036 11.4789C11.2627 10.8658 12.0053 10.4503 12.8203 10.2947C13.6352 10.1391 14.4787 10.2517 15.2243 10.6156C15.9699 10.9795 16.5776 11.5753 16.9562 12.3135C17.2176 12.2466 17.4864 12.213 17.7562 12.2135C18.5784 12.2135 19.3669 12.5401 19.9483 13.1215C20.5296 13.7028 20.8562 14.4913 20.8562 15.3135C20.8562 16.1357 20.5296 16.9242 19.9483 17.5055C19.3669 18.0869 18.5784 18.4135 17.7562 18.4135L17.7482 18.3985ZM9.57524 14.4385C9.14758 14.4385 8.73743 14.6084 8.43503 14.9108C8.13263 15.2132 7.96274 15.6233 7.96274 16.051C7.96274 16.4787 8.13263 16.8888 8.43503 17.1912C8.73743 17.4936 9.14758 17.6635 9.57524 17.6635H17.7482C18.373 17.6635 18.9721 17.4153 19.4138 16.9736C19.8556 16.5319 20.1037 15.9327 20.1037 15.308C20.1037 14.6833 19.8556 14.0842 19.4138 13.6424C18.9721 13.2007 18.373 12.9525 17.7482 12.9525C17.4531 12.9505 17.1603 13.0058 16.8862 13.1155C16.7931 13.1527 16.6893 13.1527 16.5962 13.1155C16.5512 13.0945 16.5109 13.0647 16.4778 13.0277C16.4446 12.9908 16.4192 12.9475 16.4032 12.9005C16.13 12.2376 15.6354 11.69 15.0036 11.3508C14.3719 11.0116 13.6422 10.9019 12.9387 11.0404C12.2352 11.1788 11.6014 11.5568 11.1453 12.1101C10.6892 12.6633 10.439 13.3575 10.4372 14.0745C10.4369 14.1357 10.4242 14.1962 10.4 14.2523C10.3758 14.3085 10.3405 14.3593 10.2962 14.4015C10.2542 14.4417 10.2035 14.4717 10.148 14.489C10.0925 14.5064 10.0337 14.5107 9.97624 14.5015C9.84588 14.4661 9.71131 14.4486 9.57624 14.4495L9.57524 14.4385Z" fill="#EBF4FF"/>
</svg>
