<svg width="25" height="25" viewBox="0 0 25 25" fill="none" xmlns="http://www.w3.org/2000/svg">
<path d="M15.089 2.37386L15.0891 2.37404L21.2311 12.9033C21.2311 12.9033 21.2312 12.9033 21.2312 12.9033C21.8146 13.9036 22.123 15.0446 22.123 16.2027C22.123 19.8124 19.1852 22.7501 15.5756 22.7501H14.1703C10.5607 22.7501 7.62295 19.8123 7.62295 16.2027C7.62295 15.0447 7.93153 13.9036 8.51487 12.9033L14.6569 2.37404L14.657 2.37385C14.6831 2.32913 14.7536 2.27643 14.873 2.27643C14.9924 2.27643 15.0629 2.32913 15.089 2.37386ZM15.3049 3.73637L14.8731 2.99595L14.4412 3.73637L8.94702 13.1552C8.40764 14.0793 8.12295 15.1327 8.12295 16.2026C8.12295 19.5373 10.8356 22.25 14.1703 22.25H15.5756C18.9104 22.25 21.623 19.5373 21.623 16.2026C21.623 15.1326 21.3382 14.0794 20.799 13.1552L15.3049 3.73637ZM5.87305 2.25C7.1135 2.25 8.12305 3.25954 8.12305 4.5C8.12305 5.74046 7.1135 6.75 5.87305 6.75C4.63259 6.75 3.62305 5.74046 3.62305 4.5C3.62305 3.25954 4.63259 2.25 5.87305 2.25ZM4.12305 4.5C4.12305 5.46564 4.9074 6.25 5.87305 6.25C6.83869 6.25 7.62305 5.46564 7.62305 4.5C7.62305 3.53436 6.83869 2.75 5.87305 2.75C4.9074 2.75 4.12305 3.53436 4.12305 4.5Z" fill="#81A4CD" stroke="white"/>
</svg>
