<svg width="25" height="25" viewBox="0 0 25 25" fill="none" xmlns="http://www.w3.org/2000/svg">
<path d="M4.44084 2.5C3.83038 2.50291 3.24567 2.74643 2.81348 3.17776C2.38129 3.60908 2.13646 4.19345 2.13208 4.80416V17.1292C2.13537 17.7408 2.37967 18.3263 2.81193 18.7588C3.2442 19.1912 3.82953 19.4356 4.44084 19.4389H8.75239L12.1321 22.5L15.5118 19.4389H19.8233C20.4346 19.4356 21.02 19.1912 21.4522 18.7588C21.8845 18.3263 22.1288 17.7408 22.1321 17.1292V4.80416C22.1277 4.19536 21.8844 3.61266 21.4546 3.18164C21.0248 2.75063 20.443 2.50582 19.8344 2.5H4.44084ZM4.44084 4.04028H19.8344C19.9354 4.0388 20.0356 4.0575 20.1292 4.09529C20.2229 4.13308 20.308 4.18921 20.3796 4.26036C20.4513 4.33152 20.508 4.41627 20.5464 4.50966C20.5849 4.60304 20.6043 4.70317 20.6036 4.80416V17.1292C20.6043 17.2304 20.5849 17.3308 20.5465 17.4245C20.5081 17.5182 20.4515 17.6033 20.3799 17.6749C20.3084 17.7465 20.2233 17.8032 20.1297 17.8416C20.036 17.88 19.9357 17.8994 19.8344 17.8986H14.9151L12.1335 20.4185L9.35183 17.8986H4.44084C4.33963 17.8994 4.23929 17.88 4.14564 17.8416C4.05199 17.8032 3.96691 17.7465 3.89534 17.6749C3.82377 17.6033 3.76715 17.5182 3.72876 17.4245C3.69037 17.3308 3.67098 17.2304 3.67172 17.1292V4.80416C3.67097 4.70317 3.69039 4.60304 3.72884 4.50966C3.7673 4.41627 3.82401 4.33152 3.89566 4.26036C3.9673 4.18921 4.05243 4.13308 4.14605 4.09529C4.23968 4.0575 4.3399 4.0388 4.44084 4.04028ZM11.3671 5.57917V7.11945H12.9068V5.57917H11.3671ZM11.3671 8.65834V16.3584H12.9068V8.65973L11.3671 8.65834Z" fill="#81A4CD"/>
</svg>
