<svg width="93" height="32" viewBox="0 0 93 32" fill="none" xmlns="http://www.w3.org/2000/svg">
<path d="M0 16C0 7.16344 7.16344 0 16 0H77C85.8366 0 93 7.16344 93 16C93 24.8366 85.8366 32 77 32H16C7.16345 32 0 24.8366 0 16Z" fill="#DC2F02"/>
<path d="M34 11.8184L27.6364 16.3638L34 20.9093V11.8184Z" stroke="white" stroke-width="2" stroke-linecap="round" stroke-linejoin="round"/>
<path d="M25.8182 10H15.8182C14.814 10 14 10.814 14 11.8182V20.9091C14 21.9132 14.814 22.7273 15.8182 22.7273H25.8182C26.8223 22.7273 27.6364 21.9132 27.6364 20.9091V11.8182C27.6364 10.814 26.8223 10 25.8182 10Z" stroke="white" stroke-width="2" stroke-linecap="round" stroke-linejoin="round"/>
<path d="M51.446 20.256C51.718 20.256 51.854 20.409 51.854 20.664V22.109C51.854 22.364 51.718 22.5 51.446 22.5H46.295H45.496C45.241 22.5 45.105 22.364 45.105 22.109V11.008C45.105 10.753 45.241 10.6 45.496 10.6H47.026C47.298 10.6 47.434 10.753 47.434 11.008V20.256H51.446ZM53.1734 11.008C53.1734 10.753 53.3094 10.6 53.5644 10.6H55.0944C55.3664 10.6 55.5024 10.753 55.5024 11.008V22.109C55.5024 22.364 55.3664 22.5 55.0944 22.5H53.5644C53.3094 22.5 53.1734 22.364 53.1734 22.109V11.008ZM60.8842 22.5C60.6632 22.5 60.4932 22.398 60.4252 22.177L56.8042 11.059C56.7192 10.787 56.8552 10.6 57.1442 10.6H58.8442C59.0652 10.6 59.2352 10.702 59.3032 10.94L61.9892 19.78L64.6582 10.94C64.7262 10.702 64.8962 10.6 65.1172 10.6H66.8172C67.1062 10.6 67.2422 10.787 67.1572 11.059L63.5362 22.177C63.4682 22.398 63.3152 22.5 63.0772 22.5H60.8842ZM75.1104 20.256C75.3654 20.256 75.5184 20.409 75.5184 20.664V22.109C75.5184 22.364 75.3654 22.5 75.1104 22.5H69.2284H68.8544C68.5994 22.5 68.4634 22.364 68.4634 22.109V11.008C68.4634 10.753 68.5994 10.6 68.8544 10.6H70.7924H75.0254C75.2804 10.6 75.4334 10.753 75.4334 11.008V12.453C75.4334 12.708 75.2804 12.844 75.0254 12.844H70.7924V15.394H74.6004C74.8554 15.394 75.0084 15.547 75.0084 15.802V17.179C75.0084 17.451 74.8554 17.587 74.6004 17.587H70.7924V20.256H75.1104Z" fill="white"/>
</svg>
