<svg width="24" height="25" viewBox="0 0 24 25" fill="none" xmlns="http://www.w3.org/2000/svg">
<path d="M11 12.3334C11 12.8857 11.4477 13.3334 12 13.3334C12.5523 13.3334 13 12.8857 13 12.3334C13 11.7811 12.5523 11.3334 12 11.3334C11.4477 11.3334 11 11.7811 11 12.3334Z" stroke="white" stroke-width="2" stroke-linecap="round" stroke-linejoin="round"/>
<path d="M11 19.3334C11 19.8857 11.4477 20.3334 12 20.3334C12.5523 20.3334 13 19.8857 13 19.3334C13 18.7811 12.5523 18.3334 12 18.3334C11.4477 18.3334 11 18.7811 11 19.3334Z" stroke="white" stroke-width="2" stroke-linecap="round" stroke-linejoin="round"/>
<path d="M11 5.33337C11 5.88566 11.4477 6.33337 12 6.33337C12.5523 6.33337 13 5.88566 13 5.33337C13 4.78109 12.5523 4.33337 12 4.33337C11.4477 4.33337 11 4.78109 11 5.33337Z" stroke="white" stroke-width="2" stroke-linecap="round" stroke-linejoin="round"/>
</svg>
