<svg xmlns="http://www.w3.org/2000/svg" width="25.005" height="25.005" viewBox="0 0 25.005 25.005">
  <g id="Pause" transform="translate(0)">
    <path id="Path_444" data-name="Path 444" d="M12.5,25.005a12.5,12.5,0,1,1,12.5-12.5,12.5,12.5,0,0,1-12.5,12.5Zm0-23.338A10.836,10.836,0,1,0,23.338,12.5,10.836,10.836,0,0,0,12.5,1.667Z" transform="translate(0 0)" fill="white"/>
    <path id="Path_445" data-name="Path 445" d="M10.848,19.669h-.7A2.155,2.155,0,0,1,8,17.516V10.153A2.155,2.155,0,0,1,10.153,8h.7A2.155,2.155,0,0,1,13,10.153v7.363A2.155,2.155,0,0,1,10.848,19.669Zm-.7-10a.487.487,0,0,0-.486.486v7.363a.487.487,0,0,0,.486.486h.7a.487.487,0,0,0,.486-.486V10.153a.487.487,0,0,0-.486-.486Z" transform="translate(-1.332 -1.332)" fill="white"/>
    <path id="Path_446" data-name="Path 446" d="M18.848,19.669h-.7A2.155,2.155,0,0,1,16,17.516V10.153A2.155,2.155,0,0,1,18.153,8h.7A2.155,2.155,0,0,1,21,10.153v7.363A2.155,2.155,0,0,1,18.848,19.669Zm-.7-10a.487.487,0,0,0-.486.486v7.363a.487.487,0,0,0,.486.486h.7a.487.487,0,0,0,.486-.486V10.153a.487.487,0,0,0-.486-.486Z" transform="translate(-2.664 -1.332)" fill="white"/>
  </g>
</svg>
