<svg width="52" height="52" viewBox="0 0 52 52" fill="none" xmlns="http://www.w3.org/2000/svg">
	<path d="M44.6874 21.125C44.6874 10.8042 36.3208 2.4375 25.9999 2.4375C21.7678 2.43814 17.6612 3.8751 14.3519 6.51326C11.0427 9.15142 8.72677 12.8346 7.78309 16.9602C6.8394 21.0858 7.32382 25.4095 9.15708 29.2239C10.9903 33.0384 14.0639 36.1177 17.8749 37.9582L23.9096 48.7316C24.0507 48.9836 24.2565 49.1934 24.5057 49.3395C24.7548 49.4855 25.0384 49.5625 25.3273 49.5625H26.6726C26.9614 49.5625 27.245 49.4855 27.4942 49.3395C27.7434 49.1934 27.9491 48.9836 28.0903 48.7316L34.1249 37.9582C37.2904 36.4297 39.9607 34.0395 41.8291 31.0619C43.6974 28.0843 44.6881 24.6402 44.6874 21.125Z" fill="#DC2F02"/>
	<path d="M26 34.9375C33.6284 34.9375 39.8125 28.7534 39.8125 21.125C39.8125 13.4966 33.6284 7.3125 26 7.3125C18.3716 7.3125 12.1875 13.4966 12.1875 21.125C12.1875 28.7534 18.3716 34.9375 26 34.9375Z" fill="#FFD7CC"/>
	<g clip-path="url(#clip0_5712_9061)">
		<path d="M34.1309 26.0283C34.1309 26.4324 33.9704 26.8199 33.6847 27.1056C33.399 27.3913 33.0115 27.5518 32.6074 27.5518H18.8965C18.4924 27.5518 18.105 27.3913 17.8193 27.1056C17.5336 26.8199 17.373 26.4324 17.373 26.0283V17.6494C17.373 17.2454 17.5336 16.8579 17.8193 16.5722C18.105 16.2865 18.4924 16.126 18.8965 16.126H21.9434L23.4668 13.8408H28.0371L29.5605 16.126H32.6074C33.0115 16.126 33.399 16.2865 33.6847 16.5722C33.9704 16.8579 34.1309 17.2454 34.1309 17.6494V26.0283Z" fill="#FD7653" stroke="#FEAF9A" stroke-linecap="round" stroke-linejoin="round"/>
		<path d="M25.752 24.5049C27.4347 24.5049 28.7988 23.1408 28.7988 21.458C28.7988 19.7753 27.4347 18.4111 25.752 18.4111C24.0692 18.4111 22.7051 19.7753 22.7051 21.458C22.7051 23.1408 24.0692 24.5049 25.752 24.5049Z" fill="#DC2F02" stroke="#FEAF9A" stroke-linecap="round" stroke-linejoin="round"/>
	</g>
	<defs>
		<clipPath id="clip0_5712_9061">
			<rect width="18.2812" height="18.2812" fill="white" transform="translate(16.6113 11.5557)"/>
		</clipPath>
	</defs>
</svg>
