<svg width="24" height="24" viewBox="0 0 24 24" fill="none" xmlns="http://www.w3.org/2000/svg">
<path d="M20 3.25H4C3.04 3.25 2.25 4.04 2.25 5V6C2.25 6.7 2.66 7.29 3.25 7.57V15C3.25 16.52 4.48 17.75 6 17.75H9.75L7.55 19.4C7.22 19.65 7.15 20.12 7.4 20.45C7.65 20.78 8.12 20.85 8.45 20.6L12 17.94L15.55 20.6C15.69 20.7 15.84 20.75 16 20.75C16.23 20.75 16.45 20.65 16.6 20.45C16.85 20.12 16.78 19.65 16.45 19.4L14.25 17.75H18C19.52 17.75 20.75 16.52 20.75 15V7.57C21.34 7.29 21.75 6.69 21.75 6V5C21.75 4.04 20.96 3.25 20 3.25ZM3.75 5C3.75 4.86 3.86 4.75 4 4.75H20C20.14 4.75 20.25 4.86 20.25 5V6C20.25 6.14 20.14 6.25 20 6.25H4C3.86 6.25 3.75 6.14 3.75 6V5ZM19.25 15C19.25 15.69 18.69 16.25 18 16.25H6C5.31 16.25 4.75 15.69 4.75 15V7.75H19.25V15Z" fill="white"/>
</svg>
