<svg width="24" height="24" viewBox="0 0 24 24" fill="none" xmlns="http://www.w3.org/2000/svg">
<path d="M13.6711 18.3354L11.6711 22.3354C11.5393 22.5981 11.2746 22.75 10.9992 22.75C10.8869 22.75 10.7726 22.7246 10.6652 22.6709C10.2941 22.4854 10.1437 22.0352 10.3293 21.6646L12.3293 17.6646C12.5158 17.295 12.966 17.1441 13.3352 17.3292C13.7063 17.5147 13.8567 17.9648 13.6711 18.3354ZM9.33506 17.3291C8.96596 17.144 8.51476 17.2949 8.32916 17.6645L6.32916 21.6645C6.14366 22.0351 6.29396 22.4853 6.66506 22.6708C6.77246 22.7245 6.88676 22.7499 6.99906 22.7499C7.27446 22.7499 7.53906 22.598 7.67096 22.3353L9.67096 18.3353C9.85646 17.9647 9.70616 17.5146 9.33506 17.3291ZM5.33506 17.3291C4.96596 17.144 4.51576 17.2949 4.32916 17.6645L2.32916 21.6645C2.14366 22.0351 2.29396 22.4853 2.66506 22.6708C2.77246 22.7245 2.88676 22.7499 2.99906 22.7499C3.27446 22.7499 3.53906 22.598 3.67096 22.3353L5.67096 18.3353C5.85646 17.9647 5.70616 17.5146 5.33506 17.3291ZM17.3351 17.3291C16.966 17.144 16.5148 17.2949 16.3292 17.6645L14.3292 21.6645C14.1437 22.0351 14.294 22.4853 14.6651 22.6708C14.7725 22.7245 14.8868 22.7499 14.9991 22.7499C15.2745 22.7499 15.5391 22.598 15.671 22.3353L17.671 18.3353C17.8565 17.9647 17.7062 17.5146 17.3351 17.3291ZM21.3351 17.3291C20.966 17.144 20.5158 17.2949 20.3292 17.6645L18.3292 21.6645C18.1437 22.0351 18.294 22.4853 18.6651 22.6708C18.7725 22.7245 18.8868 22.7499 18.9991 22.7499C19.2745 22.7499 19.5391 22.598 19.671 22.3353L21.671 18.3353C21.8565 17.9647 21.7062 17.5146 21.3351 17.3291ZM22.2121 13.6338C21.6955 14.333 20.8683 14.75 20.0002 14.75H6.17196C3.65336 14.75 1.50106 12.8677 1.27156 10.4644C1.14456 9.127 1.58606 7.7935 2.48446 6.8057C3.22466 5.9912 4.22466 5.4629 5.30086 5.3018C5.63976 3.0127 7.61826 1.25 10.0001 1.25C12.3644 1.25 14.3302 2.9858 14.6905 5.25H16.0001C18.0675 5.25 19.7501 6.9321 19.7501 9V9.1069C19.7501 9.186 19.8136 9.25 19.8927 9.25C21.1564 9.25 22.2784 10.0312 22.6202 11.1494C22.8868 12.0176 22.7375 12.9233 22.2121 13.6338ZM21.1867 11.5889C21.0373 11.1026 20.4933 10.75 19.8928 10.75C18.9875 10.75 18.2502 10.0127 18.2502 9.1069V9C18.2502 7.7593 17.2404 6.75 16.0002 6.75H14.0002C13.5861 6.75 13.2502 6.4141 13.2502 6C13.2502 4.208 11.7922 2.75 10.0002 2.75C8.20816 2.75 6.75016 4.208 6.75016 6C6.75016 6.4141 6.41426 6.75 6.00016 6.75C5.08606 6.75 4.20916 7.1382 3.59486 7.8145C2.97086 8.5005 2.67686 9.3907 2.76576 10.3218C2.92196 11.9639 4.41806 13.25 6.17196 13.25H20.0001C20.4005 13.25 20.7677 13.0649 21.006 12.7422C21.2492 12.4131 21.3136 12.0034 21.1867 11.5889Z" fill="white"/>
</svg>
