<svg width="25" height="25" viewBox="0 0 25 25" fill="none" xmlns="http://www.w3.org/2000/svg">
<path d="M21.5964 18.5783L18.205 15.184L15.5956 14.1046C16.6537 12.5926 17.1067 10.7384 16.8652 8.90832C16.6236 7.07824 15.7051 5.4054 14.291 4.22029C12.8769 3.03519 11.0701 2.42403 9.22762 2.50756C7.38515 2.59109 5.64098 3.36324 4.33972 4.67144C3.03847 5.97965 2.27476 7.72876 2.1995 9.57321C2.12424 11.4177 2.74289 13.2233 3.93324 14.6333C5.12358 16.0434 6.79903 16.9553 8.62856 17.1889C10.4581 17.4226 12.3086 16.9609 13.8146 15.8952L14.889 18.4989L18.2804 21.8946C18.726 22.2979 19.3095 22.5144 19.9101 22.4993C20.5107 22.4842 21.0826 22.2386 21.5074 21.8134C21.9322 21.3882 22.1775 20.8159 22.1926 20.2147C22.2077 19.6136 21.9914 19.0296 21.5885 18.5836L21.5964 18.5783ZM3.54249 9.88117C3.54249 8.68884 3.89574 7.52328 4.55759 6.53189C5.21943 5.5405 6.16014 4.76781 7.26074 4.31152C8.36135 3.85523 9.57243 3.73585 10.7408 3.96846C11.9092 4.20107 12.9825 4.77524 13.8248 5.61835C14.6672 6.46145 15.2409 7.53564 15.4733 8.70506C15.7057 9.87448 15.5864 11.0866 15.1305 12.1882C14.6746 13.2898 13.9026 14.2313 12.9121 14.8937C11.9216 15.5561 10.757 15.9097 9.56575 15.9097C7.96892 15.9076 6.4381 15.2718 5.30898 14.1417C4.17985 13.0116 3.54459 11.4794 3.54249 9.88117ZM20.6503 20.9463C20.4618 21.1343 20.2065 21.2399 19.9404 21.2399C19.6743 21.2399 19.419 21.1343 19.2305 20.9463L16.027 17.74L15.028 15.3257L17.4468 16.3256L20.6503 19.5319C20.8382 19.7205 20.9436 19.976 20.9436 20.2424C20.9436 20.5088 20.8382 20.7643 20.6503 20.9529V20.9463Z" fill="white"/>
</svg>
