<svg width="25" height="25" viewBox="0 0 25 25" fill="none" xmlns="http://www.w3.org/2000/svg">
<path d="M12.3109 16.1117L12.623 15.9851V15.6483V5.5C12.623 5.36204 12.7351 5.25 12.873 5.25C13.011 5.25 13.123 5.36204 13.123 5.5V15.6483V15.9851L13.4352 16.1117C13.9865 16.3351 14.373 16.8728 14.373 17.5C14.373 18.3285 13.7015 19 12.873 19C12.0446 19 11.373 18.3285 11.373 17.5C11.373 16.8728 11.7596 16.3352 12.3109 16.1117ZM9.44929 13.543L9.62305 13.3934V13.1641V5.5C9.62305 3.7087 11.0813 2.25 12.873 2.25C14.6648 2.25 16.123 3.7087 16.123 5.5V13.1641V13.3934L16.2968 13.543C17.464 14.548 18.123 15.97 18.123 17.5C18.123 20.3947 15.7673 22.75 12.873 22.75C9.97876 22.75 7.62305 20.3947 7.62305 17.5C7.62305 15.97 8.2821 14.548 9.44929 13.543ZM15.7224 13.7222L15.7223 13.7221C15.66 13.6751 15.623 13.6011 15.623 13.5225V5.5C15.623 3.98373 14.39 2.75 12.873 2.75C11.3561 2.75 10.123 3.98373 10.123 5.5V13.5225C10.123 13.6012 10.0861 13.675 10.0238 13.7221L10.0237 13.7222C8.82006 14.6319 8.12305 16.0095 8.12305 17.5C8.12305 20.12 10.2536 22.25 12.873 22.25C15.4925 22.25 17.623 20.12 17.623 17.5C17.623 16.0095 16.926 14.6319 15.7224 13.7222Z" fill="white" stroke="white"/>
</svg>
