<svg width="24" height="24" viewBox="0 0 24 24" fill="none" xmlns="http://www.w3.org/2000/svg">
<path d="M20.94 11.8802L19.11 10.0502C18.59 9.53023 17.9 9.24023 17.17 9.24023H14.75V7.99023C14.75 7.03023 13.96 6.24023 13 6.24023H4C3.04 6.24023 2.25 7.03023 2.25 7.99023V15.9902C2.25 16.9502 3.04 17.7402 4 17.7402H5.28C5.41 18.8602 6.35 19.7402 7.5 19.7402C8.65 19.7402 9.6 18.8602 9.72 17.7402H15.27C15.4 18.8602 16.34 19.7402 17.49 19.7402C18.64 19.7402 19.59 18.8602 19.71 17.7402H19.99C20.95 17.7402 21.74 16.9502 21.74 15.9902V13.8202C21.74 13.0902 21.45 12.4002 20.93 11.8802H20.94ZM3.75 16.0002V8.00023C3.75 7.86023 3.86 7.75023 4 7.75023H13C13.14 7.75023 13.25 7.86023 13.25 8.00023V16.2502H9.37C8.97 15.6502 8.28 15.2502 7.5 15.2502C6.72 15.2502 6.04 15.6502 5.63 16.2502H4C3.86 16.2502 3.75 16.1402 3.75 16.0002ZM7.5 18.2502C7.09 18.2502 6.75 17.9102 6.75 17.5002C6.75 17.0902 7.09 16.7502 7.5 16.7502C7.91 16.7502 8.25 17.0902 8.25 17.5002C8.25 17.9102 7.91 18.2502 7.5 18.2502ZM17.5 18.2502C17.09 18.2502 16.75 17.9102 16.75 17.5002C16.75 17.0902 17.09 16.7502 17.5 16.7502C17.91 16.7502 18.25 17.0902 18.25 17.5002C18.25 17.9102 17.91 18.2502 17.5 18.2502ZM20.25 16.0002C20.25 16.1402 20.14 16.2502 20 16.2502H19.37C18.97 15.6502 18.28 15.2502 17.5 15.2502C16.72 15.2502 16.04 15.6502 15.63 16.2502H14.75V10.7502H17.17C17.5 10.7502 17.82 10.8802 18.05 11.1202L19.88 12.9502C20.11 13.1802 20.25 13.5002 20.25 13.8302V16.0002Z" fill="#81A4CD"/>
</svg>
