<svg width="41" height="41" viewBox="0 0 41 41" fill="none" xmlns="http://www.w3.org/2000/svg">
<path d="M0.166504 20.5C0.166504 9.45431 9.12081 0.5 20.1665 0.5C31.2122 0.5 40.1665 9.45431 40.1665 20.5C40.1665 31.5457 31.2122 40.5 20.1665 40.5C9.12081 40.5 0.166504 31.5457 0.166504 20.5Z" fill="#11121D"/>
<path d="M20.1665 30.5C25.6894 30.5 30.1665 26.0228 30.1665 20.5C30.1665 14.9772 25.6894 10.5 20.1665 10.5C14.6437 10.5 10.1665 14.9772 10.1665 20.5C10.1665 26.0228 14.6437 30.5 20.1665 30.5Z" stroke="white" stroke-width="2" stroke-linecap="round" stroke-linejoin="round"/>
<path d="M20.1665 16.5V24.5" stroke="white" stroke-width="2" stroke-linecap="round" stroke-linejoin="round"/>
<path d="M16.1665 20.5H24.1665" stroke="white" stroke-width="2" stroke-linecap="round" stroke-linejoin="round"/>
</svg>
