<svg width="31" height="27" viewBox="0 0 31 27" fill="none" xmlns="http://www.w3.org/2000/svg">
<path d="M15.0043 10.0028L15.0043 18.0052" stroke="white" stroke-width="2" stroke-linecap="round" stroke-linejoin="round"/>
<path d="M13.2463 2.08492L1.29246 22.7369C1.10119 23.0674 1.00032 23.4424 1 23.8242C0.999685 24.206 1.09993 24.5812 1.29066 24.912C1.48139 25.2427 1.75587 25.5174 2.08649 25.7084C2.4171 25.8994 2.79219 26 3.17401 26H27.0816C27.4634 26 27.8385 25.8994 28.1691 25.7084C28.4997 25.5174 28.7742 25.2427 28.9649 24.912C29.1557 24.5812 29.2559 24.206 29.2556 23.8242C29.2553 23.4424 29.1544 23.0674 28.9631 22.7369L17.0093 2.08492C16.8184 1.755 16.544 1.48109 16.2138 1.29066C15.8835 1.10024 15.509 1 15.1278 1C14.7466 1 14.3721 1.10024 14.0418 1.29066C13.7116 1.48109 13.4372 1.755 13.2463 2.08492Z" stroke="white" stroke-width="2" stroke-linecap="round" stroke-linejoin="round"/>
<path d="M15.504 21.0058C15.504 21.282 15.2802 21.5058 15.004 21.5058C14.7279 21.5058 14.504 21.282 14.504 21.0058C14.504 20.7297 14.7279 20.5058 15.004 20.5058C15.2802 20.5058 15.504 20.7297 15.504 21.0058Z" fill="black" stroke="white"/>
</svg>
