<svg width="25" height="25" viewBox="0 0 25 25" fill="none" xmlns="http://www.w3.org/2000/svg">
<path d="M10.463 5.08998C10.6954 4.8563 10.9818 4.68363 11.2969 4.58732C11.612 4.49102 11.9461 4.47407 12.2693 4.53797C12.5926 4.60188 12.895 4.74466 13.1498 4.95363C13.4046 5.16259 13.6038 5.43127 13.7297 5.73578C13.8556 6.04028 13.9043 6.37117 13.8715 6.69905C13.8387 7.02692 13.7254 7.34161 13.5417 7.61514C13.358 7.88868 13.1095 8.11258 12.8184 8.26695C12.5273 8.42132 12.2026 8.50137 11.873 8.49998H2.87305M13.463 19.91C13.6954 20.1437 13.9818 20.3163 14.2969 20.4126C14.612 20.5089 14.9461 20.5259 15.2693 20.462C15.5926 20.3981 15.895 20.2553 16.1498 20.0463C16.4046 19.8374 16.6038 19.5687 16.7297 19.2642C16.8556 18.9597 16.9043 18.6288 16.8715 18.3009C16.8387 17.973 16.7254 17.6584 16.5417 17.3848C16.358 17.1113 16.1095 16.8874 15.8184 16.733C15.5273 16.5786 15.2026 16.4986 14.873 16.5H2.87305M18.603 8.22998C18.8939 7.93987 19.2518 7.7259 19.645 7.60699C20.0382 7.48809 20.4547 7.46792 20.8575 7.54827C21.2604 7.62861 21.6373 7.807 21.9548 8.06765C22.2723 8.3283 22.5207 8.66318 22.678 9.04267C22.8353 9.42217 22.8967 9.83458 22.8567 10.2434C22.8167 10.6523 22.6766 11.045 22.4487 11.3868C22.2208 11.7286 21.9122 12.009 21.5502 12.2031C21.1881 12.3973 20.7839 12.4992 20.373 12.5H2.87305" stroke="white" stroke-width="2" stroke-linecap="round" stroke-linejoin="round"/>
</svg>
